
<svg width="20" height="14" viewBox="0 0 20 14" fill="none" xmlns="http://www.w3.org/2000/svg">
<path d="M18.5021 0.445312H1.49785C0.670586 0.445312 0 1.1159 0 1.94316V12.0509C0 12.8782 0.670586 13.5488 1.49785 13.5488H18.5021C19.3294 13.5488 20 12.8782 20 12.0509V1.94316C20 1.1159 19.3294 0.445312 18.5021 0.445312Z" fill="#F5F5F5"/>
<path d="M0.0820312 1.45328H19.9172C19.7143 0.86668 19.1574 0.445312 18.5018 0.445312H1.4975C0.841875 0.445312 0.285039 0.86668 0.0820312 1.45328Z" fill="#FF4B55"/>
<path d="M20 4.47632H0V5.48425H20V4.47632Z" fill="#FF4B55"/>
<path d="M20 2.46094H0V3.46887H20V2.46094Z" fill="#FF4B55"/>
<path d="M0 7.15921C0 7.34964 0.154414 7.50405 0.344844 7.50405H20V6.49609H0V7.15921Z" fill="#FF4B55"/>
<path d="M20 10.5273H0V11.5353H20V10.5273Z" fill="#FF4B55"/>
<path d="M19.9173 12.5391H0.0820312C0.285039 13.1257 0.841914 13.547 1.4975 13.547H18.5018C19.1574 13.547 19.7143 13.1257 19.9173 12.5391Z" fill="#FF4B55"/>
<path d="M20 8.50781H0V9.51574H20V8.50781Z" fill="#FF4B55"/>
<path d="M0.344844 7.50545H8.96555C9.15598 7.50545 9.31039 7.35103 9.31039 7.16061V0.794551C9.31039 0.604082 9.15598 0.449707 8.96555 0.449707H1.49785C0.670586 0.449746 0 1.12033 0 1.9476V7.16061C0 7.35107 0.154414 7.50545 0.344844 7.50545Z" fill="#41479B"/>
<path d="M0.968216 1.23732L1.04454 1.46623L1.28583 1.46806C1.31708 1.46833 1.33001 1.50818 1.3049 1.52673L1.11079 1.67005L1.18361 1.90009C1.19306 1.92986 1.15911 1.95455 1.13368 1.93634L0.937396 1.79607L0.741107 1.93638C0.715678 1.95458 0.681811 1.9299 0.691186 1.90013L0.763998 1.67009L0.569897 1.52677C0.54478 1.50818 0.557709 1.46833 0.588959 1.4681L0.830248 1.46626L0.906576 1.23736C0.916419 1.20767 0.958294 1.20767 0.968216 1.23732Z" fill="#F5F5F5"/>
<path d="M0.968216 2.43309L1.04454 2.662L1.28583 2.66384C1.31708 2.66411 1.33001 2.70391 1.3049 2.72251L1.11079 2.86587L1.18361 3.09591C1.19306 3.12568 1.15911 3.15036 1.13368 3.13216L0.937396 2.99189L0.741107 3.1322C0.715678 3.15036 0.681811 3.12572 0.691186 3.09595L0.763998 2.86591L0.569897 2.72255C0.54478 2.70395 0.557709 2.66415 0.588959 2.66387L0.830248 2.66204L0.906576 2.43313C0.916419 2.40348 0.958294 2.40348 0.968216 2.43309Z" fill="#F5F5F5"/>
<path d="M0.968216 3.63258L1.04454 3.86149L1.28583 3.86333C1.31708 3.8636 1.33001 3.9034 1.3049 3.922L1.11079 4.06536L1.18361 4.2954C1.19306 4.32516 1.15911 4.34985 1.13368 4.33165L0.937396 4.19137L0.741107 4.33169C0.715678 4.34985 0.681811 4.32524 0.691186 4.29544L0.763998 4.0654L0.569897 3.92204C0.54478 3.90344 0.557709 3.86364 0.588959 3.86336L0.830248 3.86153L0.906576 3.63262C0.916419 3.60293 0.958294 3.60293 0.968216 3.63258Z" fill="#F5F5F5"/>
<path d="M0.968216 4.82765L1.04454 5.05655L1.28583 5.05839C1.31708 5.05866 1.33001 5.09851 1.3049 5.11706L1.11079 5.26042L1.18361 5.49046C1.19306 5.52022 1.15911 5.54491 1.13368 5.52671L0.937396 5.38643L0.741107 5.52675C0.715678 5.54491 0.681811 5.52026 0.691186 5.4905L0.763998 5.26046L0.569897 5.1171C0.54478 5.09859 0.557709 5.0587 0.588959 5.05843L0.830248 5.05659L0.906576 4.82769C0.916419 4.798 0.958294 4.798 0.968216 4.82765Z" fill="#F5F5F5"/>
<path d="M0.968216 6.02611L1.04454 6.25501L1.28583 6.25685C1.31708 6.25712 1.33001 6.29693 1.3049 6.31552L1.11079 6.45888L1.18361 6.68892C1.19306 6.71869 1.15911 6.74337 1.13368 6.72517L0.937396 6.5849L0.741107 6.72521C0.715678 6.74337 0.681811 6.71873 0.691186 6.68896L0.763998 6.45892L0.569897 6.31556C0.54478 6.29697 0.557709 6.25716 0.588959 6.25689L0.830248 6.25505L0.906576 6.02615C0.916419 5.9965 0.958294 5.9965 0.968216 6.02611Z" fill="#F5F5F5"/>
<path d="M1.89742 1.82274L1.97374 2.05165L2.21503 2.05349C2.24628 2.05376 2.25921 2.09361 2.23409 2.11216L2.03999 2.25552L2.11281 2.48556C2.12226 2.51533 2.08831 2.54002 2.06288 2.52181L1.8666 2.3815L1.67031 2.52181C1.64488 2.53998 1.61101 2.51533 1.62038 2.48556L1.6932 2.25552L1.4991 2.11216C1.47398 2.09357 1.48691 2.05376 1.51816 2.05349L1.75945 2.05165L1.83578 1.82274C1.84562 1.79313 1.88753 1.79313 1.89742 1.82274Z" fill="#F5F5F5"/>
<path d="M1.89742 3.02199L1.97374 3.2509L2.21503 3.25273C2.24628 3.25301 2.25921 3.29285 2.23409 3.31141L2.03999 3.45477L2.11281 3.6848C2.12226 3.71457 2.08831 3.73926 2.06288 3.72106L1.8666 3.58074L1.67031 3.72106C1.64488 3.73922 1.61101 3.71461 1.62038 3.6848L1.6932 3.45477L1.4991 3.31141C1.47398 3.29289 1.48691 3.25301 1.51816 3.25273L1.75945 3.2509L1.83578 3.02199C1.84562 2.99234 1.88753 2.99234 1.89742 3.02199Z" fill="#F5F5F5"/>
<path d="M1.89742 4.2173L1.97374 4.44621L2.21503 4.44805C2.24628 4.44832 2.25921 4.48813 2.23409 4.50672L2.03999 4.65008L2.11281 4.88012C2.12226 4.90989 2.08831 4.93457 2.06288 4.91637L1.8666 4.77606L1.67031 4.91637C1.64488 4.93453 1.61101 4.90989 1.62038 4.88012L1.6932 4.65008L1.4991 4.50672C1.47398 4.48813 1.48691 4.44832 1.51816 4.44805L1.75945 4.44621L1.83578 4.2173C1.84562 4.18766 1.88753 4.18766 1.89742 4.2173Z" fill="#F5F5F5"/>
<path d="M1.89742 5.41698L1.97374 5.64589L2.21503 5.64772C2.24628 5.648 2.25921 5.6878 2.23409 5.7064L2.03999 5.84975L2.11281 6.07979C2.12226 6.10956 2.08831 6.13425 2.06288 6.11604L1.8666 5.97573L1.67031 6.11604C1.64488 6.13425 1.61101 6.10956 1.62038 6.07979L1.6932 5.84975L1.4991 5.7064C1.47398 5.6878 1.48691 5.648 1.51816 5.64772L1.75945 5.64589L1.83578 5.41698C1.84562 5.38737 1.88753 5.38737 1.89742 5.41698Z" fill="#F5F5F5"/>
<path d="M2.8271 1.23708L2.90343 1.46599L3.14472 1.46782C3.17597 1.4681 3.1889 1.50794 3.16378 1.52649L2.96968 1.66982L3.04249 1.89986C3.05195 1.92962 3.018 1.95431 2.99257 1.93611L2.79628 1.79579L2.59999 1.93611C2.57456 1.95431 2.5407 1.92962 2.55007 1.89986L2.62288 1.66982L2.42878 1.52649C2.40367 1.5079 2.4166 1.46806 2.44785 1.46782L2.68913 1.46599L2.76546 1.23708C2.77531 1.20743 2.81722 1.20743 2.8271 1.23708Z" fill="#F5F5F5"/>
<path d="M2.8271 2.4331L2.90343 2.662L3.14472 2.66384C3.17597 2.66411 3.1889 2.70392 3.16378 2.72251L2.96968 2.86587L3.04249 3.09591C3.05195 3.12567 3.018 3.15036 2.99257 3.13216L2.79628 2.99184L2.59999 3.13216C2.57456 3.15032 2.5407 3.12567 2.55007 3.09591L2.62288 2.86587L2.42878 2.72251C2.40367 2.70392 2.4166 2.66411 2.44785 2.66384L2.68913 2.662L2.76546 2.4331C2.77531 2.40349 2.81722 2.40349 2.8271 2.4331Z" fill="#F5F5F5"/>
<path d="M2.8271 3.63234L2.90343 3.86125L3.14472 3.86309C3.17597 3.86336 3.1889 3.90316 3.16378 3.92176L2.96968 4.06512L3.04249 4.29516C3.05195 4.32492 3.018 4.34961 2.99257 4.33141L2.79628 4.19109L2.59999 4.33141C2.57456 4.34957 2.5407 4.32496 2.55007 4.29516L2.62288 4.06512L2.42878 3.92176C2.40367 3.90316 2.4166 3.86336 2.44785 3.86309L2.68913 3.86125L2.76546 3.63234C2.77531 3.6027 2.81722 3.6027 2.8271 3.63234Z" fill="#F5F5F5"/>
<path d="M2.8271 4.82766L2.90343 5.05656L3.14472 5.0584C3.17597 5.05867 3.1889 5.09852 3.16378 5.11707L2.96968 5.26043L3.04249 5.49047C3.05195 5.52024 3.018 5.54493 2.99257 5.52672L2.79628 5.38641L2.59999 5.52672C2.57456 5.54489 2.5407 5.52024 2.55007 5.49047L2.62288 5.26043L2.42878 5.11707C2.40367 5.09856 2.4166 5.05867 2.44785 5.0584L2.68913 5.05656L2.76546 4.82766C2.77531 4.79801 2.81722 4.79801 2.8271 4.82766Z" fill="#F5F5F5"/>
<path d="M2.82759 6.02611L2.90392 6.25502L3.14521 6.25685C3.17646 6.25713 3.18939 6.29693 3.16427 6.31553L2.97017 6.45889L3.04298 6.68892C3.05243 6.71869 3.01849 6.74338 2.99306 6.72517L2.79677 6.58486L2.60048 6.72517C2.57505 6.74334 2.54119 6.71869 2.55056 6.68892L2.62337 6.45889L2.42927 6.31553C2.40415 6.29693 2.41708 6.25713 2.44833 6.25685L2.68962 6.25502L2.76595 6.02611C2.77579 5.9965 2.81771 5.9965 2.82759 6.02611Z" fill="#F5F5F5"/>
<path d="M3.75679 1.82274L3.83312 2.05165L4.07441 2.05349C4.10566 2.05376 4.11859 2.09361 4.09347 2.11216L3.89937 2.25552L3.97218 2.48556C3.98164 2.51533 3.94769 2.54002 3.92226 2.52181L3.72597 2.3815L3.52968 2.52181C3.50425 2.53998 3.47039 2.51533 3.47976 2.48556L3.55257 2.25552L3.35847 2.11216C3.33335 2.09357 3.34628 2.05376 3.37753 2.05349L3.61882 2.05165L3.69515 1.82274C3.70496 1.79313 3.74691 1.79313 3.75679 1.82274Z" fill="#F5F5F5"/>
<path d="M3.75679 3.02199L3.83312 3.2509L4.07441 3.25273C4.10566 3.25301 4.11859 3.29285 4.09347 3.31141L3.89937 3.45477L3.97218 3.6848C3.98164 3.71457 3.94769 3.73926 3.92226 3.72106L3.72597 3.58074L3.52968 3.72106C3.50425 3.73922 3.47039 3.71461 3.47976 3.6848L3.55257 3.45477L3.35847 3.31141C3.33335 3.29289 3.34628 3.25301 3.37753 3.25273L3.61882 3.2509L3.69515 3.02199C3.70496 2.99234 3.74691 2.99234 3.75679 3.02199Z" fill="#F5F5F5"/>
<path d="M3.75679 4.2173L3.83312 4.44621L4.07441 4.44805C4.10566 4.44832 4.11859 4.48813 4.09347 4.50672L3.89937 4.65008L3.97218 4.88012C3.98164 4.90989 3.94769 4.93457 3.92226 4.91637L3.72597 4.77606L3.52968 4.91637C3.50425 4.93453 3.47039 4.90989 3.47976 4.88012L3.55257 4.65008L3.35847 4.50672C3.33335 4.48813 3.34628 4.44832 3.37753 4.44805L3.61882 4.44621L3.69515 4.2173C3.70496 4.18766 3.74691 4.18766 3.75679 4.2173Z" fill="#F5F5F5"/>
<path d="M3.75679 5.41698L3.83312 5.64589L4.07441 5.64772C4.10566 5.648 4.11859 5.6878 4.09347 5.7064L3.89937 5.84975L3.97218 6.07979C3.98164 6.10956 3.94769 6.13425 3.92226 6.11604L3.72597 5.97573L3.52968 6.11604C3.50425 6.13425 3.47039 6.10956 3.47976 6.07979L3.55257 5.84975L3.35847 5.7064C3.33335 5.6878 3.34628 5.648 3.37753 5.64772L3.61882 5.64589L3.69515 5.41698C3.70496 5.38737 3.74691 5.38737 3.75679 5.41698Z" fill="#F5F5F5"/>
<path d="M4.68603 1.23732L4.76236 1.46623L5.00365 1.46806C5.0349 1.46833 5.04783 1.50818 5.02271 1.52673L4.82861 1.67005L4.90142 1.90009C4.91087 1.92986 4.87693 1.95455 4.8515 1.93634L4.65517 1.79607L4.45888 1.93638C4.43345 1.95458 4.39958 1.9299 4.40896 1.90013L4.48177 1.67009L4.28767 1.52677C4.26255 1.50818 4.27548 1.46833 4.30673 1.4681L4.54802 1.46626L4.62435 1.23736C4.63423 1.20767 4.67615 1.20767 4.68603 1.23732Z" fill="#F5F5F5"/>
<path d="M4.68603 2.4331L4.76236 2.662L5.00365 2.66384C5.0349 2.66411 5.04783 2.70392 5.02271 2.72251L4.82861 2.86587L4.90142 3.09591C4.91087 3.12567 4.87693 3.15036 4.8515 3.13216L4.65517 2.99184L4.45888 3.13216C4.43345 3.15032 4.39958 3.12567 4.40896 3.09591L4.48177 2.86587L4.28767 2.72251C4.26255 2.70392 4.27548 2.66411 4.30673 2.66384L4.54802 2.662L4.62435 2.4331C4.63423 2.40349 4.67615 2.40349 4.68603 2.4331Z" fill="#F5F5F5"/>
<path d="M4.68603 3.63235L4.76236 3.86125L5.00365 3.86309C5.0349 3.86336 5.04783 3.90317 5.02271 3.92176L4.82861 4.06512L4.90142 4.29516C4.91087 4.32493 4.87693 4.34961 4.8515 4.33141L4.65517 4.19106L4.45888 4.33137C4.43345 4.34954 4.39958 4.32489 4.40896 4.29512L4.48177 4.06508L4.28767 3.92172C4.26255 3.90313 4.27548 3.86333 4.30673 3.86305L4.54802 3.86122L4.62435 3.63231C4.63423 3.6027 4.67615 3.6027 4.68603 3.63235Z" fill="#F5F5F5"/>
<path d="M4.68603 4.82766L4.76236 5.05656L5.00365 5.0584C5.0349 5.05867 5.04783 5.09852 5.02271 5.11707L4.82861 5.26043L4.90142 5.49047C4.91087 5.52024 4.87693 5.54493 4.8515 5.52672L4.65517 5.38641L4.45888 5.52672C4.43345 5.54489 4.39958 5.52024 4.40896 5.49047L4.48177 5.26043L4.28767 5.11707C4.26255 5.09856 4.27548 5.05867 4.30673 5.0584L4.54802 5.05656L4.62435 4.82766C4.63423 4.79801 4.67615 4.79801 4.68603 4.82766Z" fill="#F5F5F5"/>
<path d="M4.68701 6.02611L4.76334 6.25502L5.00463 6.25685C5.03588 6.25713 5.0488 6.29693 5.02369 6.31553L4.82959 6.45889L4.9024 6.68892C4.91185 6.71869 4.87791 6.74338 4.85248 6.72517L4.65615 6.58486L4.45986 6.72517C4.43443 6.74334 4.40056 6.71869 4.40994 6.68892L4.48275 6.45889L4.28865 6.31553C4.26353 6.29693 4.27646 6.25713 4.30771 6.25685L4.549 6.25502L4.62533 6.02611C4.63521 5.9965 4.67712 5.9965 4.68701 6.02611Z" fill="#F5F5F5"/>
<path d="M5.61567 1.82274L5.692 2.05165L5.93329 2.05349C5.96454 2.05376 5.97747 2.09361 5.95235 2.11216L5.75825 2.25552L5.83106 2.48556C5.84052 2.51533 5.80657 2.54002 5.78114 2.52181L5.58485 2.3815L5.38857 2.52181C5.36314 2.53998 5.32927 2.51533 5.33865 2.48556L5.41146 2.25552L5.21736 2.11216C5.19224 2.09357 5.20517 2.05376 5.23642 2.05349L5.47771 2.05165L5.55403 1.82274C5.56392 1.79313 5.60579 1.79313 5.61567 1.82274Z" fill="#F5F5F5"/>
<path d="M5.61567 3.02199L5.692 3.2509L5.93329 3.25273C5.96454 3.25301 5.97747 3.29285 5.95235 3.31141L5.75825 3.45477L5.83106 3.6848C5.84052 3.71457 5.80657 3.73926 5.78114 3.72106L5.58485 3.58074L5.38857 3.72106C5.36314 3.73922 5.32927 3.71461 5.33865 3.6848L5.41146 3.45477L5.21736 3.31141C5.19224 3.29289 5.20517 3.25301 5.23642 3.25273L5.47771 3.2509L5.55403 3.02199C5.56392 2.99234 5.60579 2.99234 5.61567 3.02199Z" fill="#F5F5F5"/>
<path d="M5.61567 4.2173L5.692 4.44621L5.93329 4.44805C5.96454 4.44832 5.97747 4.48813 5.95235 4.50672L5.75825 4.65008L5.83106 4.88012C5.84052 4.90989 5.80657 4.93457 5.78114 4.91637L5.58485 4.77606L5.38857 4.91637C5.36314 4.93453 5.32927 4.90989 5.33865 4.88012L5.41146 4.65008L5.21736 4.50672C5.19224 4.48813 5.20517 4.44832 5.23642 4.44805L5.47771 4.44621L5.55403 4.2173C5.56392 4.18766 5.60579 4.18766 5.61567 4.2173Z" fill="#F5F5F5"/>
<path d="M5.61567 5.41698L5.692 5.64589L5.93329 5.64772C5.96454 5.648 5.97747 5.6878 5.95235 5.7064L5.75825 5.84975L5.83106 6.07979C5.84052 6.10956 5.80657 6.13425 5.78114 6.11604L5.58485 5.97573L5.38857 6.11604C5.36314 6.13425 5.32927 6.10956 5.33865 6.07979L5.41146 5.84975L5.21736 5.7064C5.19224 5.6878 5.20517 5.648 5.23642 5.64772L5.47771 5.64589L5.55403 5.41698C5.56392 5.38737 5.60579 5.38737 5.61567 5.41698Z" fill="#F5F5F5"/>
<path d="M6.54487 1.23708L6.6212 1.46599L6.86249 1.46782C6.89374 1.4681 6.90667 1.50794 6.88155 1.52649L6.68745 1.66982L6.76026 1.89986C6.76972 1.92962 6.73577 1.95431 6.71034 1.93611L6.51405 1.79579L6.31777 1.93611C6.29234 1.95431 6.25847 1.92962 6.26784 1.89986L6.34066 1.66982L6.14656 1.52649C6.12144 1.5079 6.13437 1.46806 6.16562 1.46782L6.40691 1.46599L6.48323 1.23708C6.49304 1.20743 6.53499 1.20743 6.54487 1.23708Z" fill="#F5F5F5"/>
<path d="M6.54487 2.4331L6.6212 2.662L6.86249 2.66384C6.89374 2.66411 6.90667 2.70392 6.88155 2.72251L6.68745 2.86587L6.76026 3.09591C6.76972 3.12567 6.73577 3.15036 6.71034 3.13216L6.51405 2.99184L6.31777 3.13216C6.29234 3.15032 6.25847 3.12567 6.26784 3.09591L6.34066 2.86587L6.14656 2.72251C6.12144 2.70392 6.13437 2.66411 6.16562 2.66384L6.40691 2.662L6.48323 2.4331C6.49304 2.40349 6.53499 2.40349 6.54487 2.4331Z" fill="#F5F5F5"/>
<path d="M6.54487 3.63234L6.6212 3.86125L6.86249 3.86309C6.89374 3.86336 6.90667 3.90316 6.88155 3.92176L6.68745 4.06512L6.76026 4.29516C6.76972 4.32492 6.73577 4.34961 6.71034 4.33141L6.51405 4.19109L6.31777 4.33141C6.29234 4.34957 6.25847 4.32496 6.26784 4.29516L6.34066 4.06512L6.14656 3.92176C6.12144 3.90316 6.13437 3.86336 6.16562 3.86309L6.40691 3.86125L6.48323 3.63234C6.49304 3.6027 6.53499 3.6027 6.54487 3.63234Z" fill="#F5F5F5"/>
<path d="M6.54487 4.82766L6.6212 5.05656L6.86249 5.0584C6.89374 5.05867 6.90667 5.09852 6.88155 5.11707L6.68745 5.26043L6.76026 5.49047C6.76972 5.52024 6.73577 5.54493 6.71034 5.52672L6.51405 5.38641L6.31777 5.52672C6.29234 5.54489 6.25847 5.52024 6.26784 5.49047L6.34066 5.26043L6.14656 5.11707C6.12144 5.09856 6.13437 5.05867 6.16562 5.0584L6.40691 5.05656L6.48323 4.82766C6.49304 4.79801 6.53499 4.79801 6.54487 4.82766Z" fill="#F5F5F5"/>
<path d="M6.54438 6.02611L6.62071 6.25502L6.862 6.25685C6.89325 6.25713 6.90618 6.29693 6.88106 6.31553L6.68696 6.45889L6.75977 6.68892C6.76923 6.71869 6.73528 6.74338 6.70985 6.72517L6.51356 6.58486L6.31728 6.72517C6.29185 6.74334 6.25798 6.71869 6.26736 6.68892L6.34017 6.45889L6.14607 6.31553C6.12095 6.29693 6.13388 6.25713 6.16513 6.25685L6.40642 6.25502L6.48274 6.02611C6.49255 5.9965 6.5345 5.9965 6.54438 6.02611Z" fill="#F5F5F5"/>
<path d="M7.47456 1.82274L7.55089 2.05165L7.79218 2.05349C7.82343 2.05376 7.83636 2.09361 7.81124 2.11216L7.61714 2.25552L7.68995 2.48556C7.69941 2.51533 7.66546 2.54002 7.64003 2.52181L7.44374 2.3815L7.24745 2.52181C7.22202 2.53998 7.18816 2.51533 7.19753 2.48556L7.27034 2.25552L7.07624 2.11216C7.05113 2.09357 7.06406 2.05376 7.09531 2.05349L7.33659 2.05165L7.41292 1.82274C7.42277 1.79313 7.46468 1.79313 7.47456 1.82274Z" fill="#F5F5F5"/>
<path d="M7.47456 3.02199L7.55089 3.2509L7.79218 3.25273C7.82343 3.25301 7.83636 3.29285 7.81124 3.31141L7.61714 3.45477L7.68995 3.6848C7.69941 3.71457 7.66546 3.73926 7.64003 3.72106L7.44374 3.58074L7.24745 3.72106C7.22202 3.73922 7.18816 3.71461 7.19753 3.6848L7.27034 3.45477L7.07624 3.31141C7.05113 3.29289 7.06406 3.25301 7.09531 3.25273L7.33659 3.2509L7.41292 3.02199C7.42277 2.99234 7.46468 2.99234 7.47456 3.02199Z" fill="#F5F5F5"/>
<path d="M7.47456 4.2173L7.55089 4.44621L7.79218 4.44805C7.82343 4.44832 7.83636 4.48813 7.81124 4.50672L7.61714 4.65008L7.68995 4.88012C7.69941 4.90989 7.66546 4.93457 7.64003 4.91637L7.44374 4.77606L7.24745 4.91637C7.22202 4.93453 7.18816 4.90989 7.19753 4.88012L7.27034 4.65008L7.07624 4.50672C7.05113 4.48813 7.06406 4.44832 7.09531 4.44805L7.33659 4.44621L7.41292 4.2173C7.42277 4.18766 7.46468 4.18766 7.47456 4.2173Z" fill="#F5F5F5"/>
<path d="M7.47456 5.41698L7.55089 5.64589L7.79218 5.64772C7.82343 5.648 7.83636 5.6878 7.81124 5.7064L7.61714 5.84975L7.68995 6.07979C7.69941 6.10956 7.66546 6.13425 7.64003 6.11604L7.44374 5.97573L7.24745 6.11604C7.22202 6.13425 7.18816 6.10956 7.19753 6.07979L7.27034 5.84975L7.07624 5.7064C7.05113 5.6878 7.06406 5.648 7.09531 5.64772L7.33659 5.64589L7.41292 5.41698C7.42277 5.38737 7.46468 5.38737 7.47456 5.41698Z" fill="#F5F5F5"/>
<path d="M8.40377 1.23708L8.48009 1.46599L8.72138 1.46782C8.75263 1.4681 8.76556 1.50794 8.74045 1.52649L8.54634 1.66982L8.61916 1.89986C8.62861 1.92962 8.59466 1.95431 8.56923 1.93611L8.37294 1.79579L8.17666 1.93611C8.15123 1.95431 8.11736 1.92962 8.12673 1.89986L8.19955 1.66982L8.00544 1.52649C7.98033 1.5079 7.99326 1.46806 8.02451 1.46782L8.2658 1.46599L8.34212 1.23708C8.35197 1.20743 8.39384 1.20743 8.40377 1.23708Z" fill="#F5F5F5"/>
<path d="M8.40377 2.4331L8.48009 2.662L8.72138 2.66384C8.75263 2.66411 8.76556 2.70392 8.74045 2.72251L8.54634 2.86587L8.61916 3.09591C8.62861 3.12567 8.59466 3.15036 8.56923 3.13216L8.37294 2.99184L8.17666 3.13216C8.15123 3.15032 8.11736 3.12567 8.12673 3.09591L8.19955 2.86587L8.00544 2.72251C7.98033 2.70392 7.99326 2.66411 8.02451 2.66384L8.2658 2.662L8.34212 2.4331C8.35197 2.40349 8.39384 2.40349 8.40377 2.4331Z" fill="#F5F5F5"/>
<path d="M8.40377 3.63234L8.48009 3.86125L8.72138 3.86309C8.75263 3.86336 8.76556 3.90316 8.74045 3.92176L8.54634 4.06512L8.61916 4.29516C8.62861 4.32492 8.59466 4.34961 8.56923 4.33141L8.37294 4.19109L8.17666 4.33141C8.15123 4.34957 8.11736 4.32496 8.12673 4.29516L8.19955 4.06512L8.00544 3.92176C7.98033 3.90316 7.99326 3.86336 8.02451 3.86309L8.2658 3.86125L8.34212 3.63234C8.35197 3.6027 8.39384 3.6027 8.40377 3.63234Z" fill="#F5F5F5"/>
<path d="M8.40377 4.82766L8.48009 5.05656L8.72138 5.0584C8.75263 5.05867 8.76556 5.09852 8.74045 5.11707L8.54634 5.26043L8.61916 5.49047C8.62861 5.52024 8.59466 5.54493 8.56923 5.52672L8.37294 5.38641L8.17666 5.52672C8.15123 5.54489 8.11736 5.52024 8.12673 5.49047L8.19955 5.26043L8.00544 5.11707C7.98033 5.09856 7.99326 5.05867 8.02451 5.0584L8.2658 5.05656L8.34212 4.82766C8.35197 4.79801 8.39384 4.79801 8.40377 4.82766Z" fill="#F5F5F5"/>
<path d="M8.40377 6.02611L8.48009 6.25502L8.72138 6.25685C8.75263 6.25713 8.76556 6.29693 8.74045 6.31553L8.54634 6.45889L8.61916 6.68892C8.62861 6.71869 8.59466 6.74338 8.56923 6.72517L8.37294 6.58486L8.17666 6.72517C8.15123 6.74334 8.11736 6.71869 8.12673 6.68892L8.19955 6.45889L8.00544 6.31553C7.98033 6.29693 7.99326 6.25713 8.02451 6.25685L8.2658 6.25502L8.34212 6.02611C8.35197 5.9965 8.39384 5.9965 8.40377 6.02611Z" fill="#F5F5F5"/>
</svg>
